<?xml version="1.0" encoding="UTF-8" standalone="no"?>
<!-- Created with Inkscape (http://www.inkscape.org/) -->

<svg
   xmlns:dc="http://purl.org/dc/elements/1.1/"
   xmlns:cc="http://creativecommons.org/ns#"
   xmlns:rdf="http://www.w3.org/1999/02/22-rdf-syntax-ns#"
   xmlns:svg="http://www.w3.org/2000/svg"
   xmlns="http://www.w3.org/2000/svg"
   xmlns:sodipodi="http://sodipodi.sourceforge.net/DTD/sodipodi-0.dtd"
   xmlns:inkscape="http://www.inkscape.org/namespaces/inkscape"
   width="400mm"
   height="400mm"
   viewBox="0 0 1417.3228 1417.3228"
   id="svg6420"
   version="1.1"
   inkscape:version="0.91 r13725"
   sodipodi:docname="stork-airline-white-logo.svg">
  <defs
     id="defs6422">
    <pattern
       inkscape:stockid="Stripes 1:5"
       id="Strips1_5"
       patternTransform="translate(0,0) scale(10,10)"
       height="1"
       width="6"
       patternUnits="userSpaceOnUse"
       inkscape:collect="always">
      <rect
         id="rect5615"
         height="2"
         width="1"
         y="-0.5"
         x="0"
         style="fill:black;stroke:none" />
    </pattern>
  </defs>
  <sodipodi:namedview
     id="base"
     pagecolor="#ffffff"
     bordercolor="#666666"
     borderopacity="1.0"
     inkscape:pageopacity="0.0"
     inkscape:pageshadow="2"
     inkscape:zoom="0.35"
     inkscape:cx="-32.497188"
     inkscape:cy="748.57143"
     inkscape:document-units="px"
     inkscape:current-layer="g6393"
     showgrid="false"
     inkscape:window-width="1920"
     inkscape:window-height="1017"
     inkscape:window-x="-8"
     inkscape:window-y="-8"
     inkscape:window-maximized="1" />
  <metadata
     id="metadata6425">
    <rdf:RDF>
      <cc:Work
         rdf:about="">
        <dc:format>image/svg+xml</dc:format>
        <dc:type
           rdf:resource="http://purl.org/dc/dcmitype/StillImage" />
        <dc:title></dc:title>
      </cc:Work>
    </rdf:RDF>
  </metadata>
  <g
     inkscape:label="Layer 1"
     inkscape:groupmode="layer"
     id="layer1"
     transform="translate(0,364.96063)">
    <g
       transform="matrix(0.74991492,0,0,0.74991492,-308.30002,-255.10712)"
       id="g6393">
      <path
         sodipodi:nodetypes="ccccccccccccccccccccccccccccccccccccccccc"
         inkscape:connector-curvature="0"
         id="path4864"
         d="m 1425.5,450.5 c 0.5,-2 29,-118 29,-118 17.9279,30.53573 6.5321,98.21488 6.5,151.5 20.5017,-54.99831 40.2656,-110.73439 55.5,-171 28.7839,58.77469 9.7566,120.89423 -36,181 l 13,1.5 c 54.4768,-49.40483 74.7302,-95.00705 107.5,-142 19.8016,60.04798 -29.1082,110.86607 -98,159 63.0693,-20.83033 122.0971,-61.7125 178.5,-108 -5.9198,15.63389 3.6169,47.23582 -134.5,107.5 68.2921,-13.2706 133.2035,-28.23159 193.5,-45.5 -8.0544,5.47194 -16.7673,11.10849 -40.5,20.5 l -101,28.5 c 51.6242,-3.83031 102.1981,-3.45909 152.5,-2 l 19.5,5 -65.5,3 8,7.5 -15.5,6 7.5,10.5 -14.5,10.5 11.5,8 -9,10 8.5,11 -10.5,9.5 12,8 -10.5,6.5 17.5,9 -4.5,3 c 26.1833,16.22244 23.4727,49.84675 21,69.5 l -5,5 7.5,9.5 -6,5 5.5,15.5 -13.5,7.5 5,12 c -5.0934,3.21338 -6.5704,6.61855 -9,8.5 l 3.5,12.5 -17,6.5 -2.5,11 -55,3 z"
         style="opacity:1;fill:#d4aa00;fill-opacity:1;fill-rule:evenodd;stroke:url(#Strips1_5);stroke-width:0;stroke-linecap:butt;stroke-linejoin:miter;stroke-opacity:1" />
      <path
         sodipodi:nodetypes="ccccccccccccccccccccccccccccccccccccccccccc"
         inkscape:connector-curvature="0"
         id="path4846"
         d="m 1838.1122,847.02902 c -649.2804,40.0297 -379.6548,72.9392 -761.1197,-17.07054 L 930.42988,831.1189 672.38415,890.54269 897.8689,794.4878 c 29.97714,-40.92781 73.89573,-63.99312 172.7511,-16.6707 51.5255,4.50561 90.9254,-7.40507 127.4465,-20.04732 l 91.2824,-39.8153 c -54.6863,-146.62118 -145.07,-97.22926 -117.4229,-188.79751 -40.6616,-56.60377 -45.4805,-215.36603 -23.8381,-283.33593 24.0927,33.76866 19.4742,69.97939 26.1405,103.74805 l 9.2097,-131.23729 c 38.9575,44.85704 40.6007,118.91647 29.9313,202.61196 l 41.4433,-174.98306 c 39.048,35.79923 25.3503,107.86111 -4.6048,191.09992 l 71.3747,-156.56379 c 19.5538,42.2156 25.7384,88.25096 -29.9313,151.95897 l 99.0035,-85.18912 c 13.3775,28.76634 -5.0861,58.85939 -43.7457,89.79394 36.7945,-11.78664 74.4468,-23.05863 121.9119,-28.44292 -38.702,17.78015 -43.2191,23.3514 -52.8397,30.74533 18.0308,-2.6578 27.2765,-7.71155 67.4682,-4.32549 -8.9035,2.583 -14.3331,6.3949 -21.7822,12.83664 l 28.8207,2.20433 c -8.6734,5.16914 -19.6904,9.1665 -23.1547,16.94019 l 18.0149,8.48678 -8.8082,16.76329 21.7042,5.26702 -8.1061,18.57559 8.9568,4.16873 2.0755,27.29613 c 145.3016,48.76324 153.7117,139.0088 158.8662,230.24086 l 193.4024,39.14095 122.0276,-27.6289 -20.7216,20.72167 c 26.2305,-0.68276 51.9075,1.40205 75.9794,11.51205 l 16.1169,18.41927 -55.2578,-6.90723 39.1409,13.81445 -36.8385,4.60482 c 17.7918,-0.58874 39.147,4.16759 61.2353,10.02366 l -31.304,6.0932 c -52.5453,-4.52866 -105.8293,-9.24142 -185.705,-20.58202 z"
         style="fill:#ffffff;fill-rule:evenodd;stroke:none;stroke-width:0;stroke-linecap:butt;stroke-linejoin:miter;stroke-opacity:1" />
      <circle
         r="614.43353"
         cy="557.09546"
         cx="1358.1116"
         id="path4858"
         style="opacity:1;fill:none;fill-opacity:1;fill-rule:evenodd;stroke:#ffffff;stroke-width:32;stroke-opacity:1" />
      <g
         style="font-style:normal;font-weight:normal;font-size:124.9593811px;line-height:125%;font-family:sans-serif;letter-spacing:0px;word-spacing:0px;fill:#ffffff;fill-opacity:1;stroke:none;stroke-width:1px;stroke-linecap:butt;stroke-linejoin:miter;stroke-opacity:1"
         id="text4860">
        <path
           d="m 413.21943,1657.8171 0,-89.4484 28.98227,0 q 16.47414,0 21.4774,1.3423 7.68793,2.0135 12.87423,8.7862 5.1863,6.7117 5.1863,17.3894 0,8.2371 -2.98975,13.8505 -2.98975,5.6134 -7.62691,8.8472 -4.57615,3.1728 -9.33535,4.21 -6.46762,1.2814 -18.7317,1.2814 l -11.77596,0 0,33.7414 -18.06053,0 z m 18.06053,-74.3166 0,25.3823 9.88448,0 q 10.67769,0 14.27759,-1.4033 3.5999,-1.4034 5.61341,-4.3931 2.07452,-2.9898 2.07452,-6.9558 0,-4.8812 -2.86772,-8.054 -2.86772,-3.1728 -7.26082,-3.966 -3.23382,-0.6101 -12.99627,-0.6101 l -8.72519,0 z"
           style="font-style:normal;font-variant:normal;font-weight:bold;font-stretch:normal;font-family:Arial;-inkscape-font-specification:'Arial Bold';letter-spacing:15.95336914px;word-spacing:0.07765904px;fill:#ffffff;fill-opacity:1"
           id="path4155" />
        <path
           d="m 508.98084,1613.642 q 0,-13.6674 4.08803,-22.9417 3.05076,-6.8337 8.29808,-12.2641 5.30833,-5.4304 11.59291,-8.054 8.3591,-3.5389 19.28084,-3.5389 19.76897,0 31.60594,12.2641 11.89799,12.2641 11.89799,34.1075 0,21.6605 -11.77596,33.9246 -11.77596,12.203 -31.48391,12.203 -19.95201,0 -31.72796,-12.142 -11.77596,-12.2031 -11.77596,-33.5585 z m 18.60967,-0.6101 q 0,15.1928 7.01677,23.0638 7.01676,7.8099 17.81647,7.8099 10.79971,0 17.69444,-7.7489 6.95575,-7.81 6.95575,-23.3689 0,-15.3758 -6.7727,-22.9417 -6.71169,-7.5659 -17.87749,-7.5659 -11.1658,0 -17.99952,7.6879 -6.83372,7.6269 -6.83372,23.0638 z"
           style="font-style:normal;font-variant:normal;font-weight:bold;font-stretch:normal;font-family:Arial;-inkscape-font-specification:'Arial Bold';letter-spacing:15.95336914px;word-spacing:0.07765904px;fill:#ffffff;fill-opacity:1"
           id="path4157" />
        <path
           d="m 626.21963,1657.8171 0,-88.7162 18.06054,0 0,73.6455 44.90728,0 0,15.0707 -62.96782,0 z"
           style="font-style:normal;font-variant:normal;font-weight:bold;font-stretch:normal;font-family:Arial;-inkscape-font-specification:'Arial Bold';letter-spacing:15.95336914px;word-spacing:0.07765904px;fill:#ffffff;fill-opacity:1"
           id="path4159" />
        <path
           d="m 713.49991,1628.7128 17.57241,-1.7084 q 1.5864,8.8472 6.40661,12.9963 4.88122,4.149 13.11829,4.149 8.72519,0 13.1183,-3.6609 4.45411,-3.7219 4.45411,-8.6642 0,-3.1728 -1.89147,-5.3693 -1.83046,-2.2576 -6.46762,-3.905 -3.1728,-1.0983 -14.46064,-3.905 -14.52164,-3.5999 -20.37911,-8.8472 -8.23707,-7.3829 -8.23707,-17.9995 0,-6.8338 3.84396,-12.7522 3.90498,-5.9795 11.16581,-9.0913 7.32184,-3.1118 17.63343,-3.1118 16.84022,0 25.32135,7.3828 8.54215,7.3829 8.96926,19.708 l -18.06054,0.7932 q -1.15929,-6.8947 -5.00326,-9.8845 -3.78295,-3.0508 -11.40986,-3.0508 -7.87098,0 -12.3251,3.2339 -2.86772,2.0745 -2.86772,5.5524 0,3.1727 2.68468,5.4303 3.41686,2.8677 16.59617,5.9795 13.17931,3.1118 19.46388,6.4676 6.3456,3.2949 9.88449,9.0913 3.5999,5.7355 3.5999,14.2166 0,7.6879 -4.27107,14.3996 -4.27107,6.7117 -12.08104,10.0065 -7.80996,3.2338 -19.46388,3.2338 -16.96226,0 -26.05355,-7.8099 -9.09128,-7.871 -10.86072,-22.8808 z"
           style="font-style:normal;font-variant:normal;font-weight:bold;font-stretch:normal;font-family:Arial;-inkscape-font-specification:'Arial Bold';letter-spacing:15.95336914px;word-spacing:0.07765904px;fill:#ffffff;fill-opacity:1"
           id="path4161" />
        <path
           d="m 817.74248,1657.8171 0,-89.4484 18.06053,0 0,39.721 36.48717,-39.721 24.2841,0 -33.68046,34.8397 35.51092,54.6087 -23.36887,0 -24.58918,-41.9785 -14.64368,14.9488 0,27.0297 -18.06053,0 z"
           style="font-style:normal;font-variant:normal;font-weight:bold;font-stretch:normal;font-family:Arial;-inkscape-font-specification:'Arial Bold';letter-spacing:15.95336914px;word-spacing:0.07765904px;fill:#ffffff;fill-opacity:1"
           id="path4163" />
        <path
           d="m 923.20532,1657.8171 0,-89.4484 18.06054,0 0,89.4484 -18.06054,0 z"
           style="font-style:normal;font-variant:normal;font-weight:bold;font-stretch:normal;font-family:Arial;-inkscape-font-specification:'Arial Bold';letter-spacing:15.95336914px;word-spacing:0.07765904px;fill:#ffffff;fill-opacity:1"
           id="path4165" />
        <path
           d="m 974.36451,1657.8171 0,-89.4484 66.32369,0 0,15.1318 -48.26316,0 0,19.83 44.90726,0 0,15.0707 -44.90726,0 0,24.3452 49.97156,0 0,15.0707 -68.03209,0 z"
           style="font-style:normal;font-variant:normal;font-weight:bold;font-stretch:normal;font-family:Arial;-inkscape-font-specification:'Arial Bold';letter-spacing:15.95336914px;word-spacing:0.07765904px;fill:#ffffff;fill-opacity:1"
           id="path4167" />
        <path
           d="m 1124.9627,1657.8171 0,-88.7162 18.0606,0 0,73.6455 44.9073,0 0,15.0707 -62.9679,0 z"
           style="font-style:normal;font-variant:normal;font-weight:bold;font-stretch:normal;font-family:Arial;-inkscape-font-specification:'Arial Bold';letter-spacing:15.95336914px;word-spacing:0.07765904px;fill:#ffffff;fill-opacity:1"
           id="path4169" />
        <path
           d="m 1216.27,1657.8171 0,-89.4484 18.0606,0 0,89.4484 -18.0606,0 z"
           style="font-style:normal;font-variant:normal;font-weight:bold;font-stretch:normal;font-family:Arial;-inkscape-font-specification:'Arial Bold';letter-spacing:15.95336914px;word-spacing:0.07765904px;fill:#ffffff;fill-opacity:1"
           id="path4171" />
        <path
           d="m 1267.6123,1657.8171 0,-89.4484 17.5724,0 36.6092,59.734 0,-59.734 16.7792,0 0,89.4484 -18.1216,0 -36.06,-58.3306 0,58.3306 -16.7792,0 z"
           style="font-style:normal;font-variant:normal;font-weight:bold;font-stretch:normal;font-family:Arial;-inkscape-font-specification:'Arial Bold';letter-spacing:15.95336914px;word-spacing:0.07765904px;fill:#ffffff;fill-opacity:1"
           id="path4173" />
        <path
           d="m 1373.1361,1657.8171 0,-89.4484 18.0605,0 0,89.4484 -18.0605,0 z"
           style="font-style:normal;font-variant:normal;font-weight:bold;font-stretch:normal;font-family:Arial;-inkscape-font-specification:'Arial Bold';letter-spacing:15.95336914px;word-spacing:0.07765904px;fill:#ffffff;fill-opacity:1"
           id="path4175" />
        <path
           d="m 1424.2954,1657.8171 0,-89.4484 66.3236,0 0,15.1318 -48.2631,0 0,19.83 44.9073,0 0,15.0707 -44.9073,0 0,24.3452 49.9715,0 0,15.0707 -68.032,0 z"
           style="font-style:normal;font-variant:normal;font-weight:bold;font-stretch:normal;font-family:Arial;-inkscape-font-specification:'Arial Bold';letter-spacing:15.95336914px;word-spacing:0.07765904px;fill:#ffffff;fill-opacity:1"
           id="path4177" />
        <path
           d="m 1574.8936,1657.8171 0,-88.7162 18.0605,0 0,73.6455 44.9073,0 0,15.0707 -62.9678,0 z"
           style="font-style:normal;font-variant:normal;font-weight:bold;font-stretch:normal;font-family:Arial;-inkscape-font-specification:'Arial Bold';letter-spacing:15.95336914px;word-spacing:0.07765904px;fill:#ffffff;fill-opacity:1"
           id="path4179" />
        <path
           d="m 1663.089,1613.642 q 0,-13.6674 4.0881,-22.9417 3.0507,-6.8337 8.298,-12.2641 5.3084,-5.4304 11.5929,-8.054 8.3591,-3.5389 19.2809,-3.5389 19.769,0 31.6059,12.2641 11.898,12.2641 11.898,34.1075 0,21.6605 -11.7759,33.9246 -11.776,12.203 -31.484,12.203 -19.952,0 -31.7279,-12.142 -11.776,-12.2031 -11.776,-33.5585 z m 18.6097,-0.6101 q 0,15.1928 7.0168,23.0638 7.0167,7.8099 17.8164,7.8099 10.7997,0 17.6945,-7.7489 6.9557,-7.81 6.9557,-23.3689 0,-15.3758 -6.7727,-22.9417 -6.7117,-7.5659 -17.8775,-7.5659 -11.1658,0 -17.9995,7.6879 -6.8337,7.6269 -6.8337,23.0638 z"
           style="font-style:normal;font-variant:normal;font-weight:bold;font-stretch:normal;font-family:Arial;-inkscape-font-specification:'Arial Bold';letter-spacing:15.95336914px;word-spacing:0.07765904px;fill:#ffffff;fill-opacity:1"
           id="path4181" />
        <path
           d="m 1799.9747,1657.8171 0,-74.3166 -26.5416,0 0,-15.1318 71.0828,0 0,15.1318 -26.4806,0 0,74.3166 -18.0606,0 z"
           style="font-style:normal;font-variant:normal;font-weight:bold;font-stretch:normal;font-family:Arial;-inkscape-font-specification:'Arial Bold';letter-spacing:15.95336914px;word-spacing:0.07765904px;fill:#ffffff;fill-opacity:1"
           id="path4183" />
        <path
           d="m 1872.1233,1657.8171 0,-89.4484 17.5724,0 36.6092,59.734 0,-59.734 16.7792,0 0,89.4484 -18.1215,0 -36.0601,-58.3306 0,58.3306 -16.7792,0 z"
           style="font-style:normal;font-variant:normal;font-weight:bold;font-stretch:normal;font-family:Arial;-inkscape-font-specification:'Arial Bold';letter-spacing:15.95336914px;word-spacing:0.07765904px;fill:#ffffff;fill-opacity:1"
           id="path4185" />
        <path
           d="m 1977.6471,1657.8171 0,-89.4484 18.0605,0 0,89.4484 -18.0605,0 z"
           style="font-style:normal;font-variant:normal;font-weight:bold;font-stretch:normal;font-family:Arial;-inkscape-font-specification:'Arial Bold';letter-spacing:15.95336914px;word-spacing:0.07765904px;fill:#ffffff;fill-opacity:1"
           id="path4187" />
        <path
           d="m 2086.0387,1624.9299 17.5114,5.5524 q -4.027,14.6437 -13.4234,21.7824 -9.3353,7.0778 -23.7349,7.0778 -17.8165,0 -29.2874,-12.142 -11.4709,-12.2031 -11.4709,-33.3144 0,-22.3316 11.5319,-34.6567 11.5319,-12.3861 30.3247,-12.3861 16.4131,0 26.6637,9.7014 6.1015,5.7355 9.1522,16.4742 l -17.8774,4.271 q -1.5864,-6.9557 -6.6507,-10.9827 -5.0033,-4.027 -12.2031,-4.027 -9.9455,0 -16.169,7.1388 -6.1626,7.1388 -6.1626,23.1248 0,16.9622 6.1015,24.162 6.1016,7.1998 15.864,7.1998 7.1998,0 12.3861,-4.5761 5.1863,-4.5762 7.4439,-14.3996 z"
           style="font-style:normal;font-variant:normal;font-weight:bold;font-stretch:normal;font-family:Arial;-inkscape-font-specification:'Arial Bold';letter-spacing:15.95336914px;word-spacing:0.07765904px;fill:#ffffff;fill-opacity:1"
           id="path4189" />
        <path
           d="m 2127.3134,1657.8171 0,-16.2911 46.9818,-58.0255 -41.6735,0 0,-15.1318 65.4695,0 0,14.0335 -48.9954,60.3442 50.8868,0 0,15.0707 -72.6692,0 z"
           style="font-style:normal;font-variant:normal;font-weight:bold;font-stretch:normal;font-family:Arial;-inkscape-font-specification:'Arial Bold';letter-spacing:15.95336914px;word-spacing:0.07765904px;fill:#ffffff;fill-opacity:1"
           id="path4191" />
        <path
           d="m 2227.4069,1657.8171 0,-89.4484 66.3237,0 0,15.1318 -48.2631,0 0,19.83 44.9072,0 0,15.0707 -44.9072,0 0,24.3452 49.9715,0 0,15.0707 -68.0321,0 z"
           style="font-style:normal;font-variant:normal;font-weight:bold;font-stretch:normal;font-family:Arial;-inkscape-font-specification:'Arial Bold';letter-spacing:15.95336914px;word-spacing:0.07765904px;fill:#ffffff;fill-opacity:1"
           id="path4193" />
      </g>
      <g
         style="font-style:normal;font-weight:normal;font-size:66.8137207px;line-height:125%;font-family:sans-serif;letter-spacing:0px;word-spacing:0px;fill:#ffffff;fill-opacity:1;stroke:none;stroke-width:1px;stroke-linecap:butt;stroke-linejoin:miter;stroke-opacity:1"
         id="text6389">
        <path
           d="m 744.30532,1488.9052 -30.06617,30.0662 -300.66175,0 0,-60.1323 240.5294,0 0,-30.0662 -210.46322,0 -30.06618,-30.0662 0,-90.1985 30.06618,-30.0662 300.66174,0 0,60.1324 -240.52939,0 0,30.0662 210.46322,0 30.06617,30.0661 0,90.1985 z"
           style="font-style:normal;font-variant:normal;font-weight:normal;font-stretch:normal;font-size:300.66174316px;font-family:'New Horizons';-inkscape-font-specification:'New Horizons';letter-spacing:-3.22774577px;fill:#ffffff;fill-opacity:1"
           id="path4144" />
        <path
           d="m 1132.1727,1338.5744 -120.2647,0 0,180.397 -90.1985,0 0,-180.397 -120.26469,0 0,-60.1324 330.72789,0 0,60.1324 z"
           style="font-style:normal;font-variant:normal;font-weight:normal;font-stretch:normal;font-size:300.66174316px;font-family:'New Horizons';-inkscape-font-specification:'New Horizons';letter-spacing:-3.22774577px;fill:#ffffff;fill-opacity:1"
           id="path4146" />
        <path
           d="m 1520.0401,1488.9052 -30.0661,30.0662 -270.5956,0 -30.0662,-30.0662 0,-180.397 30.0662,-30.0662 270.5956,0 30.0661,30.0662 0,180.397 z m -90.1985,-30.0661 0,-120.2647 -150.3309,0 0,120.2647 150.3309,0 z"
           style="font-style:normal;font-variant:normal;font-weight:normal;font-stretch:normal;font-size:300.66174316px;font-family:'New Horizons';-inkscape-font-specification:'New Horizons';letter-spacing:-3.22774577px;fill:#ffffff;fill-opacity:1"
           id="path4148" />
        <path
           d="m 1907.9075,1518.9714 -90.1985,0 0,-90.1985 -150.3309,0 0,90.1985 -90.1985,0 0,-240.5294 300.6617,0 30.0662,30.0662 0,60.1324 -30.0662,30.0661 30.0662,30.0662 0,90.1985 z m -90.1985,-150.3308 0,-30.0662 -150.3309,0 0,30.0662 150.3309,0 z"
           style="font-style:normal;font-variant:normal;font-weight:normal;font-stretch:normal;font-size:300.66174316px;font-family:'New Horizons';-inkscape-font-specification:'New Horizons';letter-spacing:-3.22774577px;fill:#ffffff;fill-opacity:1"
           id="path4150" />
        <path
           d="m 2295.7749,1518.9714 -90.1985,0 0,-90.1985 -150.3309,0 0,90.1985 -90.1985,0 0,-240.5294 90.1985,0 0,90.1986 150.3309,0 0,-90.1986 90.1985,0 0,90.1986 -30.0661,30.0661 30.0661,30.0662 0,90.1985 z"
           style="font-style:normal;font-variant:normal;font-weight:normal;font-stretch:normal;font-size:300.66174316px;font-family:'New Horizons';-inkscape-font-specification:'New Horizons';letter-spacing:-3.22774577px;fill:#ffffff;fill-opacity:1"
           id="path4152" />
      </g>
    </g>
  </g>
</svg>
